<svg xmlns="http://www.w3.org/2000/svg" viewBox="0 0 1920 1080" style="background: #1a1410;">
  <!-- Définitions -->
  <defs>
    <!-- Gradient parchemin vieilli -->
    <linearGradient id="parchmentGrad" x1="0%" y1="0%" x2="0%" y2="100%">
      <stop offset="0%" style="stop-color:#3d2f1f;stop-opacity:1" />
      <stop offset="50%" style="stop-color:#2a1f14;stop-opacity:1" />
      <stop offset="100%" style="stop-color:#1a1410;stop-opacity:1" />
    </linearGradient>
    
    <!-- Gradient or pour titres -->
    <linearGradient id="goldGrad" x1="0%" y1="0%" x2="100%" y2="0%">
      <stop offset="0%" style="stop-color:#8b6914;stop-opacity:1" />
      <stop offset="50%" style="stop-color:#d4af37;stop-opacity:1" />
      <stop offset="100%" style="stop-color:#8b6914;stop-opacity:1" />
    </linearGradient>
    
    <!-- Filtre ombre portée -->
    <filter id="shadow" x="-50%" y="-50%" width="200%" height="200%">
      <feGaussianBlur in="SourceAlpha" stdDeviation="3"/>
      <feOffset dx="2" dy="2" result="offsetblur"/>
      <feComponentTransfer>
        <feFuncA type="linear" slope="0.5"/>
      </feComponentTransfer>
      <feMerge>
        <feMergeNode/>
        <feMergeNode in="SourceGraphic"/>
      </feMerge>
    </filter>
    
    <!-- Texture parchemin -->
    <pattern id="parchmentTexture" x="0" y="0" width="100" height="100" patternUnits="userSpaceOnUse">
      <rect width="100" height="100" fill="#2a1f14" opacity="0.3"/>
      <path d="M10,10 L90,90 M90,10 L10,90" stroke="#1a1410" stroke-width="0.5" opacity="0.2"/>
    </pattern>
  </defs>

  <!-- Fond parchemin -->
  <rect width="1920" height="1080" fill="url(#parchmentGrad)"/>
  <rect width="1920" height="1080" fill="url(#parchmentTexture)" opacity="0.3"/>
  
  <!-- Bordure décorative ornée -->
  <rect x="20" y="20" width="1880" height="1040" fill="none" stroke="url(#goldGrad)" stroke-width="8" filter="url(#shadow)"/>
  <rect x="40" y="40" width="1840" height="1000" fill="none" stroke="#4a3829" stroke-width="2"/>
  
  <!-- Coins ornementaux -->
  <g filter="url(#shadow)">
    <!-- Coin supérieur gauche -->
    <path d="M60,60 L120,60 L90,90 Z" fill="url(#goldGrad)"/>
    <circle cx="75" cy="75" r="8" fill="#8b6914"/>
    
    <!-- Coin supérieur droit -->
    <path d="M1860,60 L1800,60 L1830,90 Z" fill="url(#goldGrad)"/>
    <circle cx="1845" cy="75" r="8" fill="#8b6914"/>
    
    <!-- Coin inférieur gauche -->
    <path d="M60,1020 L120,1020 L90,990 Z" fill="url(#goldGrad)"/>
    <circle cx="75" cy="1005" r="8" fill="#8b6914"/>
    
    <!-- Coin inférieur droit -->
    <path d="M1860,1020 L1800,1020 L1830,990 Z" fill="url(#goldGrad)"/>
    <circle cx="1845" cy="1005" r="8" fill="#8b6914"/>
  </g>

  <!-- TITRE PRINCIPAL -->
  <g filter="url(#shadow)">
    <text x="960" y="100" font-family="serif" font-size="64" font-weight="bold" text-anchor="middle" fill="url(#goldGrad)" stroke="#000" stroke-width="2">
      ⚔ AETHELGARD ⚔
    </text>
    <text x="960" y="140" font-family="serif" font-size="24" text-anchor="middle" fill="#d4af37" font-style="italic">
      "Royaume des Légendes Oubliées"
    </text>
  </g>

  <!-- ===============================
       TERRES GELÉES DU NORD
  =============================== -->
  <g id="frozen-north">
    <!-- Zone bleue glacée -->
    <rect x="700" y="180" width="520" height="140" fill="#2c3e50" opacity="0.4" stroke="#5dade2" stroke-width="2"/>
    <text x="960" y="210" font-family="serif" font-size="20" font-weight="bold" text-anchor="middle" fill="#aed6f1">
      ❄ TERRES GELÉES DU NORD ❄
    </text>
    <text x="960" y="235" font-family="serif" font-size="14" text-anchor="middle" fill="#d6eaf8">
      Toundra Éternelle • Niveau 30-40+
    </text>
    
    <!-- Frostholm -->
    <circle cx="960" cy="270" r="8" fill="#3498db" stroke="#fff" stroke-width="2"/>
    <text x="960" y="295" font-family="serif" font-size="14" font-weight="bold" text-anchor="middle" fill="#ecf0f1">
      ⛰ Frostholm
    </text>
  </g>

  <!-- ===============================
       ROYAUMES DU NORD
  =============================== -->
  <g id="northern-kingdoms">
    <!-- Zone verte principale -->
    <rect x="200" y="340" width="1520" height="280" fill="#1e4620" opacity="0.5" stroke="#52b788" stroke-width="3"/>
    
    <!-- AETHELGARD - Capitale -->
    <g filter="url(#shadow)">
      <polygon points="960,420 980,440 960,460 940,440" fill="#d4af37" stroke="#8b6914" stroke-width="2"/>
      <circle cx="960" cy="440" r="12" fill="#ffd700" stroke="#8b6914" stroke-width="2"/>
      <text x="960" y="490" font-family="serif" font-size="22" font-weight="bold" text-anchor="middle" fill="#ffd700" stroke="#000" stroke-width="1">
        👑 AETHELGARD
      </text>
      <text x="960" y="510" font-family="serif" font-size="13" text-anchor="middle" fill="#d4af37">
        Capitale • 150k hab. • Niv 1-10
      </text>
      <rect x="910" y="520" width="100" height="30" fill="#2a1f14" stroke="#d4af37" stroke-width="1"/>
      <text x="960" y="540" font-family="serif" font-size="11" text-anchor="middle" fill="#ffd700">
        Palais Royal
      </text>
    </g>

    <!-- Forêt d'Émeraude -->
    <g transform="translate(300,420)">
      <circle cx="0" cy="0" r="60" fill="#0d4720" opacity="0.6" stroke="#2d6a4f" stroke-width="2"/>
      <text x="0" y="-30" font-family="serif" font-size="16" font-weight="bold" text-anchor="middle" fill="#52b788">
        🌲 Forêt d'Émeraude
      </text>
      <text x="0" y="-10" font-family="serif" font-size="12" text-anchor="middle" fill="#74c69d">
        Niv 5-15
      </text>
      <text x="0" y="8" font-family="serif" font-size="10" text-anchor="middle" fill="#95d5b2">
        Elfes • Druides
      </text>
    </g>

    <!-- Riverside (village) -->
    <circle cx="750" cy="500" r="5" fill="#8b4513" stroke="#fff" stroke-width="1"/>
    <text x="750" y="520" font-family="serif" font-size="12" text-anchor="middle" fill="#d4af37">
      🏘 Riverside
    </text>
  </g>

  <!-- ===============================
       HAUTES TERRES CENTRALES
  =============================== -->
  <g id="central-highlands">
    <rect x="1300" y="340" width="400" height="280" fill="#5a4733" opacity="0.5" stroke="#8b7355" stroke-width="2"/>
    
    <!-- Forgefer -->
    <g transform="translate(1500,440)">
      <polygon points="0,-20 15,0 0,20 -15,0" fill="#8b4513" stroke="#d2691e" stroke-width="2"/>
      <text x="0" y="-35" font-family="serif" font-size="18" font-weight="bold" text-anchor="middle" fill="#cd853f">
        ⚒ Forgefer
      </text>
      <text x="0" y="-15" font-family="serif" font-size="11" text-anchor="middle" fill="#daa520">
        Cité Naine
      </text>
      <text x="0" y="0" font-family="serif" font-size="10" text-anchor="middle" fill="#b8860b">
        50k hab.
      </text>
      <text x="0" y="15" font-family="serif" font-size="10" text-anchor="middle" fill="#cd853f">
        Niv 10-20
      </text>
    </g>
    
    <text x="1500" y="570" font-family="serif" font-size="16" text-anchor="middle" fill="#8b7355" font-style="italic">
      Montagnes de Fer
    </text>
  </g>

  <!-- ===============================
       CÔTE OUEST
  =============================== -->
  <g id="western-coast">
    <rect x="80" y="640" width="400" height="200" fill="#1a5490" opacity="0.4" stroke="#3498db" stroke-width="2"/>
    
    <!-- Port d'Azur -->
    <g transform="translate(280,720)">
      <circle cx="0" cy="0" r="10" fill="#2e86de" stroke="#54a0ff" stroke-width="2"/>
      <text x="0" y="-25" font-family="serif" font-size="18" font-weight="bold" text-anchor="middle" fill="#54a0ff">
        ⚓ Port d'Azur
      </text>
      <text x="0" y="-5" font-family="serif" font-size="11" text-anchor="middle" fill="#74b9ff">
        Cité Maritime
      </text>
      <text x="0" y="10" font-family="serif" font-size="10" text-anchor="middle" fill="#a29bfe">
        80k hab. • Niv 3-12
      </text>
    </g>
    
    <!-- Vagues -->
    <path d="M100,750 Q120,745 140,750 T180,750 T220,750 T260,750 T300,750 T340,750 T380,750 T420,750 T460,750" 
          stroke="#3498db" stroke-width="2" fill="none" opacity="0.6"/>
    <path d="M100,770 Q120,765 140,770 T180,770 T220,770 T260,770 T300,770 T340,770 T380,770 T420,770 T460,770" 
          stroke="#2980b9" stroke-width="2" fill="none" opacity="0.6"/>
  </g>

  <!-- ===============================
       DÉSERT DE L'EST
  =============================== -->
  <g id="eastern-desert">
    <rect x="1440" y="640" width="400" height="200" fill="#8b6914" opacity="0.3" stroke="#d4af37" stroke-width="2"/>
    
    <!-- Zharash -->
    <g transform="translate(1640,730)">
      <polygon points="0,-15 12,-5 7,10 -7,10 -12,-5" fill="#d4af37" stroke="#8b6914" stroke-width="2"/>
      <text x="0" y="-30" font-family="serif" font-size="18" font-weight="bold" text-anchor="middle" fill="#daa520">
        🏜 Zharash
      </text>
      <text x="0" y="-10" font-family="serif" font-size="11" text-anchor="middle" fill="#f39c12">
        Cité du Désert
      </text>
      <text x="0" y="5" font-family="serif" font-size="10" text-anchor="middle" fill="#e67e22">
        30k hab. • Niv 15-25
      </text>
    </g>
    
    <!-- Dunes -->
    <ellipse cx="1550" cy="780" rx="80" ry="20" fill="#c19a6b" opacity="0.4"/>
    <ellipse cx="1700" cy="800" rx="90" ry="25" fill="#d2b48c" opacity="0.4"/>
  </g>

  <!-- ===============================
       MARAIS DU SUD
  =============================== -->
  <g id="southern-swamps">
    <rect x="520" y="850" width="880" height="120" fill="#1a3d1a" opacity="0.6" stroke="#2d5016" stroke-width="2"/>
    <text x="960" y="880" font-family="serif" font-size="18" font-weight="bold" text-anchor="middle" fill="#6a994e">
      🐊 MARAIS DU SUD 🐊
    </text>
    <text x="960" y="905" font-family="serif" font-size="12" text-anchor="middle" fill="#a7c957">
      Marécage Noir • Niv 20-30 • Zone Dangereuse
    </text>
    <text x="960" y="925" font-family="serif" font-size="11" text-anchor="middle" fill="#bc6c25" font-style="italic">
      Nécromanciens • Trolls • Maladies
    </text>
    
    <!-- Brume -->
    <ellipse cx="700" cy="940" rx="120" ry="15" fill="#2d5016" opacity="0.3"/>
    <ellipse cx="1200" cy="945" rx="100" ry="12" fill="#2d5016" opacity="0.3"/>
  </g>

  <!-- ===============================
       TERRES VOLCANIQUES
  =============================== -->
  <g id="volcanic-wastes">
    <rect x="80" y="850" width="380" height="120" fill="#641e16" opacity="0.5" stroke="#c0392b" stroke-width="2"/>
    <text x="270" y="880" font-family="serif" font-size="16" font-weight="bold" text-anchor="middle" fill="#e74c3c">
      🌋 TERRES VOLCANIQUES
    </text>
    <text x="270" y="905" font-family="serif" font-size="12" text-anchor="middle" fill="#ec7063">
      Pic du Magma
    </text>
    <text x="270" y="925" font-family="serif" font-size="11" text-anchor="middle" fill="#f1948a">
      Niv 25-35+ • MORTEL
    </text>
    
    <!-- Lave -->
    <path d="M120,950 Q140,945 160,950 T200,950 T240,950 T280,950 T320,950 T360,950 T400,950" 
          stroke="#e74c3c" stroke-width="3" fill="none" opacity="0.6"/>
    <circle cx="270" cy="940" r="8" fill="#c0392b" opacity="0.7"/>
  </g>

  <!-- ===============================
       ROUTES COMMERCIALES
  =============================== -->
  <g id="trade-routes" opacity="0.6">
    <!-- Aethelgard -> Port d'Azur -->
    <line x1="960" y1="480" x2="320" y2="680" stroke="#d4af37" stroke-width="3" stroke-dasharray="10,5"/>
    <text x="640" y="570" font-family="serif" font-size="11" fill="#f39c12" transform="rotate(-30 640 570)">
      Route Côtière
    </text>
    
    <!-- Aethelgard -> Forgefer -->
    <line x1="1000" y1="460" x2="1460" y2="460" stroke="#d4af37" stroke-width="3" stroke-dasharray="10,5"/>
    <text x="1230" y="445" font-family="serif" font-size="11" fill="#f39c12">
      Route Montagneuse
    </text>
    
    <!-- Forgefer -> Zharash -->
    <line x1="1520" y1="500" x2="1620" y2="700" stroke="#d4af37" stroke-width="3" stroke-dasharray="10,5"/>
    <text x="1560" y="600" font-family="serif" font-size="11" fill="#f39c12" transform="rotate(60 1560 600)">
      Caravanes
    </text>
  </g>

  <!-- ===============================
       LÉGENDE
  =============================== -->
  <g id="legend" transform="translate(1550,180)">
    <rect x="0" y="0" width="300" height="280" fill="#1a1410" opacity="0.8" stroke="url(#goldGrad)" stroke-width="2"/>
    <text x="150" y="25" font-family="serif" font-size="16" font-weight="bold" text-anchor="middle" fill="url(#goldGrad)">
      LÉGENDE
    </text>
    
    <!-- Symboles -->
    <circle cx="30" cy="50" r="8" fill="#ffd700"/>
    <text x="50" y="55" font-family="serif" font-size="12" fill="#d4af37">Capitale</text>
    
    <circle cx="30" cy="75" r="6" fill="#cd853f"/>
    <text x="50" y="80" font-family="serif" font-size="12" fill="#d4af37">Cité majeure</text>
    
    <circle cx="30" cy="100" r="4" fill="#8b4513"/>
    <text x="50" y="105" font-family="serif" font-size="12" fill="#d4af37">Village</text>
    
    <line x1="20" y1="125" x2="40" y2="125" stroke="#d4af37" stroke-width="2" stroke-dasharray="5,3"/>
    <text x="50" y="130" font-family="serif" font-size="12" fill="#d4af37">Route</text>
    
    <!-- Niveaux -->
    <text x="150" y="160" font-family="serif" font-size="14" font-weight="bold" text-anchor="middle" fill="url(#goldGrad)">
      ZONES DE DANGER
    </text>
    
    <rect x="20" y="170" width="15" height="15" fill="#52b788"/>
    <text x="45" y="182" font-family="serif" font-size="11" fill="#74c69d">Niv 1-10 (Sûr)</text>
    
    <rect x="20" y="192" width="15" height="15" fill="#cd853f"/>
    <text x="45" y="204" font-family="serif" font-size="11" fill="#daa520">Niv 10-20 (Moyen)</text>
    
    <rect x="20" y="214" width="15" height="15" fill="#d4af37"/>
    <text x="45" y="226" font-family="serif" font-size="11" fill="#f39c12">Niv 15-25 (Risque)</text>
    
    <rect x="20" y="236" width="15" height="15" fill="#c0392b"/>
    <text x="45" y="248" font-family="serif" font-size="11" fill="#e74c3c">Niv 25-35+ (Mortel)</text>
    
    <rect x="20" y="258" width="15" height="15" fill="#3498db"/>
    <text x="45" y="270" font-family="serif" font-size="11" fill="#5dade2">Niv 30-40+ (Extrême)</text>
  </g>

  <!-- ===============================
       BOUSSOLE
  =============================== -->
  <g id="compass" transform="translate(150,180)">
    <circle cx="0" cy="0" r="60" fill="#1a1410" opacity="0.9" stroke="url(#goldGrad)" stroke-width="3"/>
    <circle cx="0" cy="0" r="55" fill="none" stroke="#4a3829" stroke-width="1"/>
    
    <!-- Directions -->
    <polygon points="0,-45 5,-20 0,-25 -5,-20" fill="#e74c3c"/>
    <text x="0" y="-53" font-family="serif" font-size="14" font-weight="bold" text-anchor="middle" fill="#e74c3c">N</text>
    
    <text x="0" y="63" font-family="serif" font-size="12" text-anchor="middle" fill="#d4af37">S</text>
    <text x="58" y="5" font-family="serif" font-size="12" text-anchor="middle" fill="#d4af37">E</text>
    <text x="-58" y="5" font-family="serif" font-size="12" text-anchor="middle" fill="#d4af37">O</text>
    
    <!-- Lignes cardinales -->
    <line x1="0" y1="-50" x2="0" y2="-15" stroke="#e74c3c" stroke-width="2"/>
    <line x1="0" y1="15" x2="0" y2="50" stroke="#d4af37" stroke-width="2"/>
    <line x1="15" y1="0" x2="50" y2="0" stroke="#d4af37" stroke-width="2"/>
    <line x1="-15" y1="0" x2="-50" y2="0" stroke="#d4af37" stroke-width="2"/>
    
    <!-- Centre -->
    <circle cx="0" cy="0" r="8" fill="#d4af37"/>
  </g>

  <!-- ===============================
       ÉCHELLE
  =============================== -->
  <g id="scale" transform="translate(150,950)">
    <rect x="0" y="0" width="200" height="40" fill="#1a1410" opacity="0.8" stroke="#d4af37" stroke-width="1"/>
    <text x="100" y="18" font-family="serif" font-size="11" font-weight="bold" text-anchor="middle" fill="#d4af37">
      ÉCHELLE
    </text>
    
    <line x1="20" y1="30" x2="180" y2="30" stroke="#d4af37" stroke-width="2"/>
    <line x1="20" y1="25" x2="20" y2="35" stroke="#d4af37" stroke-width="2"/>
    <line x1="180" y1="25" x2="180" y2="35" stroke="#d4af37" stroke-width="2"/>
    <text x="100" y="42" font-family="serif" font-size="10" text-anchor="middle" fill="#d4af37">
      200 km
    </text>
  </g>

  <!-- ===============================
       SCEAU ROYAL
  =============================== -->
  <g id="royal-seal" transform="translate(1750,950)" filter="url(#shadow)">
    <circle cx="0" cy="0" r="40" fill="#1a1410" stroke="url(#goldGrad)" stroke-width="3"/>
    <circle cx="0" cy="0" r="35" fill="none" stroke="#4a3829" stroke-width="1"/>
    
    <!-- Couronne stylisée -->
    <path d="M-15,-5 L-10,-15 L-5,-10 L0,-18 L5,-10 L10,-15 L15,-5 L15,5 L-15,5 Z" 
          fill="url(#goldGrad)" stroke="#8b6914" stroke-width="1"/>
    
    <!-- Épées croisées -->
    <line x1="-12" y1="10" x2="12" y2="25" stroke="#d4af37" stroke-width="2"/>
    <line x1="12" y1="10" x2="-12" y2="25" stroke="#d4af37" stroke-width="2"/>
    
    <text x="0" y="50" font-family="serif" font-size="8" text-anchor="middle" fill="#d4af37" font-style="italic">
      Roi Aldric III
    </text>
  </g>

  <!-- Citation épique -->
  <text x="960" y="1050" font-family="serif" font-size="16" font-style="italic" text-anchor="middle" fill="#d4af37">
    "Que les braves s'élèvent, car les ténèbres guettent aux frontières."
  </text>
</svg>
